<svg width="96" height="46" viewBox="0 0 96 46" fill="none" xmlns="http://www.w3.org/2000/svg">
<path d="M16.2506 27.2867C16.2506 28.7904 15.6819 29.9566 14.5446 30.7855C13.4265 31.5952 11.8651 32 9.86024 32H1.61928V15.4892H9.16627C11.1904 15.4892 12.7133 15.8458 13.7349 16.559C14.7759 17.253 15.2964 18.2747 15.2964 19.6241C15.2964 20.5687 15.0361 21.3687 14.5157 22.0241C13.9952 22.6602 13.2048 23.094 12.1446 23.3253C13.4747 23.4795 14.4867 23.9036 15.1807 24.5976C15.894 25.2723 16.2506 26.1687 16.2506 27.2867ZM11.8265 20.1157C11.8265 19.3639 11.5855 18.8337 11.1036 18.5253C10.6217 18.2169 9.91807 18.0626 8.99277 18.0626H5.06024V22.1398H9.02169C10.0048 22.1398 10.7181 21.9759 11.1614 21.6482C11.6048 21.3012 11.8265 20.7904 11.8265 20.1157ZM12.7807 27.0265C12.7807 25.4843 11.6723 24.7133 9.45542 24.7133H5.06024V29.4265H9.57108C10.6892 29.4265 11.4988 29.2337 12 28.8482C12.5205 28.4434 12.7807 27.8361 12.7807 27.0265ZM18.9974 17.0217V14.6217H22.2938V17.0217H18.9974ZM18.9974 32V19.306H22.2938V32H18.9974ZM25.6537 32V14.6217H28.9501V32H25.6537ZM32.3099 32V14.6217H35.6063V32H32.3099ZM46.3397 18.1494V32H42.8987V18.1494H37.5493V15.4892H51.6891V18.1494H46.3397ZM53.5912 32V22.2843C53.5912 21.5904 53.5815 21.012 53.5623 20.5494C53.543 20.0867 53.5237 19.6723 53.5044 19.306H56.6273C56.6466 19.441 56.6755 19.8747 56.7141 20.6072C56.7719 21.3205 56.8008 21.7928 56.8008 22.0241H56.8297C57.1574 21.1373 57.4466 20.5108 57.6972 20.1446C57.9478 19.7783 58.237 19.5084 58.5647 19.3349C58.9117 19.1614 59.3454 19.0747 59.8659 19.0747C60.29 19.0747 60.6273 19.1325 60.8779 19.2482V21.9952C60.3382 21.8795 59.8755 21.8217 59.49 21.8217C58.6611 21.8217 58.0153 22.159 57.5526 22.8337C57.1092 23.4892 56.8876 24.4723 56.8876 25.7831V32H53.5912ZM62.9193 17.0217V14.6217H66.2157V17.0217H62.9193ZM62.9193 32V19.306H66.2157V32H62.9193ZM77.0358 32V24.8867C77.0358 22.6506 76.3996 21.5325 75.1274 21.5325C74.4719 21.5325 73.9322 21.8795 73.5081 22.5735C73.084 23.2482 72.8719 24.1253 72.8719 25.2048V32H69.5755V22.1687C69.5755 21.494 69.5659 20.9349 69.5466 20.4916C69.5274 20.0482 69.5081 19.653 69.4888 19.306H72.6117C72.631 19.4602 72.6599 19.8651 72.6984 20.5205C72.7563 21.1566 72.7852 21.6 72.7852 21.8506H72.8141C73.2189 20.8867 73.7201 20.1831 74.3177 19.7398C74.9346 19.2964 75.6671 19.0747 76.5153 19.0747C78.4623 19.0747 79.6382 20 80.043 21.8506H80.1008C80.5249 20.8675 81.0358 20.1639 81.6334 19.7398C82.2502 19.2964 83.0213 19.0747 83.9466 19.0747C85.1804 19.0747 86.1249 19.4988 86.7804 20.347C87.4358 21.1759 87.7635 22.3807 87.7635 23.9614V32H84.4671V24.8867C84.4671 22.6506 83.831 21.5325 82.5587 21.5325C81.9225 21.5325 81.3924 21.8506 80.9683 22.4867C80.5635 23.1036 80.3418 23.9614 80.3033 25.0602V32H77.0358ZM90.8458 32V28.4145H94.229V32H90.8458Z" fill="#1E9AC7"/>
</svg>
